<svg id="mermaid-1784880364509" width="100%" xmlns="http://www.w3.org/2000/svg" xmlns:xlink="http://www.w3.org/1999/xlink" class="flowchart" style="max-width: 1591.75px;" viewBox="0 0 1591.75 1561.41259765625" role="graphics-document document" aria-roledescription="flowchart-v2"><style>#mermaid-1784880364509{font-family:"trebuchet ms",verdana,arial,sans-serif;font-size:16px;fill:#ccc;}@keyframes edge-animation-frame{from{stroke-dashoffset:0;}}@keyframes dash{to{stroke-dashoffset:0;}}#mermaid-1784880364509 .edge-animation-slow{stroke-dasharray:9,5!important;stroke-dashoffset:900;animation:dash 50s linear infinite;stroke-linecap:round;}#mermaid-1784880364509 .edge-animation-fast{stroke-dasharray:9,5!important;stroke-dashoffset:900;animation:dash 20s linear infinite;stroke-linecap:round;}#mermaid-1784880364509 .error-icon{fill:#a44141;}#mermaid-1784880364509 .error-text{fill:#ddd;stroke:#ddd;}#mermaid-1784880364509 .edge-thickness-normal{stroke-width:1px;}#mermaid-1784880364509 .edge-thickness-thick{stroke-width:3.5px;}#mermaid-1784880364509 .edge-pattern-solid{stroke-dasharray:0;}#mermaid-1784880364509 .edge-thickness-invisible{stroke-width:0;fill:none;}#mermaid-1784880364509 .edge-pattern-dashed{stroke-dasharray:3;}#mermaid-1784880364509 .edge-pattern-dotted{stroke-dasharray:2;}#mermaid-1784880364509 .marker{fill:lightgrey;stroke:lightgrey;}#mermaid-1784880364509 .marker.cross{stroke:lightgrey;}#mermaid-1784880364509 svg{font-family:"trebuchet ms",verdana,arial,sans-serif;font-size:16px;}#mermaid-1784880364509 p{margin:0;}#mermaid-1784880364509 .label{font-family:"trebuchet ms",verdana,arial,sans-serif;color:#ccc;}#mermaid-1784880364509 .cluster-label text{fill:#F9FFFE;}#mermaid-1784880364509 .cluster-label span{color:#F9FFFE;}#mermaid-1784880364509 .cluster-label span p{background-color:transparent;}#mermaid-1784880364509 .label text,#mermaid-1784880364509 span{fill:#ccc;color:#ccc;}#mermaid-1784880364509 .node rect,#mermaid-1784880364509 .node circle,#mermaid-1784880364509 .node ellipse,#mermaid-1784880364509 .node polygon,#mermaid-1784880364509 .node path{fill:#1f2020;stroke:#ccc;stroke-width:1px;}#mermaid-1784880364509 .rough-node .label text,#mermaid-1784880364509 .node .label text,#mermaid-1784880364509 .image-shape .label,#mermaid-1784880364509 .icon-shape .label{text-anchor:middle;}#mermaid-1784880364509 .node .katex path{fill:#000;stroke:#000;stroke-width:1px;}#mermaid-1784880364509 .rough-node .label,#mermaid-1784880364509 .node .label,#mermaid-1784880364509 .image-shape .label,#mermaid-1784880364509 .icon-shape .label{text-align:center;}#mermaid-1784880364509 .node.clickable{cursor:pointer;}#mermaid-1784880364509 .root .anchor path{fill:lightgrey!important;stroke-width:0;stroke:lightgrey;}#mermaid-1784880364509 .arrowheadPath{fill:lightgrey;}#mermaid-1784880364509 .edgePath .path{stroke:lightgrey;stroke-width:2.0px;}#mermaid-1784880364509 .flowchart-link{stroke:lightgrey;fill:none;}#mermaid-1784880364509 .edgeLabel{background-color:hsl(0, 0%, 34.4117647059%);text-align:center;}#mermaid-1784880364509 .edgeLabel p{background-color:hsl(0, 0%, 34.4117647059%);}#mermaid-1784880364509 .edgeLabel rect{opacity:0.5;background-color:hsl(0, 0%, 34.4117647059%);fill:hsl(0, 0%, 34.4117647059%);}#mermaid-1784880364509 .labelBkg{background-color:rgba(87.75, 87.75, 87.75, 0.5);}#mermaid-1784880364509 .cluster rect{fill:hsl(180, 1.5873015873%, 28.3529411765%);stroke:rgba(255, 255, 255, 0.25);stroke-width:1px;}#mermaid-1784880364509 .cluster text{fill:#F9FFFE;}#mermaid-1784880364509 .cluster span{color:#F9FFFE;}#mermaid-1784880364509 div.mermaidTooltip{position:absolute;text-align:center;max-width:200px;padding:2px;font-family:"trebuchet ms",verdana,arial,sans-serif;font-size:12px;background:hsl(20, 1.5873015873%, 12.3529411765%);border:1px solid rgba(255, 255, 255, 0.25);border-radius:2px;pointer-events:none;z-index:100;}#mermaid-1784880364509 .flowchartTitleText{text-anchor:middle;font-size:18px;fill:#ccc;}#mermaid-1784880364509 rect.text{fill:none;stroke-width:0;}#mermaid-1784880364509 .icon-shape,#mermaid-1784880364509 .image-shape{background-color:hsl(0, 0%, 34.4117647059%);text-align:center;}#mermaid-1784880364509 .icon-shape p,#mermaid-1784880364509 .image-shape p{background-color:hsl(0, 0%, 34.4117647059%);padding:2px;}#mermaid-1784880364509 .icon-shape rect,#mermaid-1784880364509 .image-shape rect{opacity:0.5;background-color:hsl(0, 0%, 34.4117647059%);fill:hsl(0, 0%, 34.4117647059%);}#mermaid-1784880364509 :root{--mermaid-font-family:"trebuchet ms",verdana,arial,sans-serif;}</style><g><marker id="mermaid-1784880364509_flowchart-v2-pointEnd" class="marker flowchart-v2" viewBox="0 0 10 10" refX="5" refY="5" markerUnits="userSpaceOnUse" markerWidth="8" markerHeight="8" orient="auto"><path d="M 0 0 L 10 5 L 0 10 z" class="arrowMarkerPath" style="stroke-width: 1; stroke-dasharray: 1, 0;"/></marker><marker id="mermaid-1784880364509_flowchart-v2-pointStart" class="marker flowchart-v2" viewBox="0 0 10 10" refX="4.5" refY="5" markerUnits="userSpaceOnUse" markerWidth="8" markerHeight="8" orient="auto"><path d="M 0 5 L 10 10 L 10 0 z" class="arrowMarkerPath" style="stroke-width: 1; stroke-dasharray: 1, 0;"/></marker><marker id="mermaid-1784880364509_flowchart-v2-circleEnd" class="marker flowchart-v2" viewBox="0 0 10 10" refX="11" refY="5" markerUnits="userSpaceOnUse" markerWidth="11" markerHeight="11" orient="auto"><circle cx="5" cy="5" r="5" class="arrowMarkerPath" style="stroke-width: 1; stroke-dasharray: 1, 0;"/></marker><marker id="mermaid-1784880364509_flowchart-v2-circleStart" class="marker flowchart-v2" viewBox="0 0 10 10" refX="-1" refY="5" markerUnits="userSpaceOnUse" markerWidth="11" markerHeight="11" orient="auto"><circle cx="5" cy="5" r="5" class="arrowMarkerPath" style="stroke-width: 1; stroke-dasharray: 1, 0;"/></marker><marker id="mermaid-1784880364509_flowchart-v2-crossEnd" class="marker cross flowchart-v2" viewBox="0 0 11 11" refX="12" refY="5.2" markerUnits="userSpaceOnUse" markerWidth="11" markerHeight="11" orient="auto"><path d="M 1,1 l 9,9 M 10,1 l -9,9" class="arrowMarkerPath" style="stroke-width: 2; stroke-dasharray: 1, 0;"/></marker><marker id="mermaid-1784880364509_flowchart-v2-crossStart" class="marker cross flowchart-v2" viewBox="0 0 11 11" refX="-1" refY="5.2" markerUnits="userSpaceOnUse" markerWidth="11" markerHeight="11" orient="auto"><path d="M 1,1 l 9,9 M 10,1 l -9,9" class="arrowMarkerPath" style="stroke-width: 2; stroke-dasharray: 1, 0;"/></marker><g class="root"><g class="clusters"><g class="cluster" id="Alerting" data-look="classic"><rect style="" x="42.3515625" y="1118.4126586914062" width="261.296875" height="435"/><g class="cluster-label" transform="translate(144.609375, 1118.4126586914062)"><foreignObject width="56.78125" height="24"><div xmlns="http://www.w3.org/1999/xhtml" style="display: table-cell; white-space: nowrap; line-height: 1.5; max-width: 200px; text-align: center;"><span class="nodeLabel"><p>Alerting</p></span></div></foreignObject></g></g><g class="cluster" id="Application" data-look="classic"><rect style="" x="406.97265625" y="1425.4126586914062" width="1091.84375" height="128"/><g class="cluster-label" transform="translate(912.33984375, 1425.4126586914062)"><foreignObject width="81.109375" height="24"><div xmlns="http://www.w3.org/1999/xhtml" style="display: table-cell; white-space: nowrap; line-height: 1.5; max-width: 200px; text-align: center;"><span class="nodeLabel"><p>Application</p></span></div></foreignObject></g></g><g class="cluster" id="Functions" data-look="classic"><rect style="" x="472.9375" y="1247.4126586914062" width="1110.8125" height="128"/><g class="cluster-label" transform="translate(994.0859375, 1247.4126586914062)"><foreignObject width="68.515625" height="24"><div xmlns="http://www.w3.org/1999/xhtml" style="display: table-cell; white-space: nowrap; line-height: 1.5; max-width: 200px; text-align: center;"><span class="nodeLabel"><p>Functions</p></span></div></foreignObject></g></g><g class="cluster" id="Ontology" data-look="classic"><rect style="" x="8" y="940.4126586914062" width="579.875" height="128"/><g class="cluster-label" transform="translate(266.09375, 940.4126586914062)"><foreignObject width="63.6875" height="24"><div xmlns="http://www.w3.org/1999/xhtml" style="display: table-cell; white-space: nowrap; line-height: 1.5; max-width: 200px; text-align: center;"><span class="nodeLabel"><p>Ontology</p></span></div></foreignObject></g></g><g class="cluster" id="subGraph1" data-look="classic"><rect style="" x="15.2421875" y="162" width="1199.35546875" height="728.4126586914062"/><g class="cluster-label" transform="translate(545.193359375, 162)"><foreignObject width="139.453125" height="24"><div xmlns="http://www.w3.org/1999/xhtml" style="display: table-cell; white-space: nowrap; line-height: 1.5; max-width: 200px; text-align: center;"><span class="nodeLabel"><p>Foundry Data Layer</p></span></div></foreignObject></g></g><g class="cluster" id="subGraph0" data-look="classic"><rect style="" x="19.375" y="8" width="1162.875" height="104"/><g class="cluster-label" transform="translate(554.328125, 8)"><foreignObject width="92.96875" height="24"><div xmlns="http://www.w3.org/1999/xhtml" style="display: table-cell; white-space: nowrap; line-height: 1.5; max-width: 200px; text-align: center;"><span class="nodeLabel"><p>External APIs</p></span></div></foreignObject></g></g></g><g class="edgePaths"><path d="M152.688,87L152.688,91.167C152.688,95.333,152.688,103.667,152.688,112C152.688,120.333,152.688,128.667,152.688,137C152.688,145.333,152.688,153.667,154.384,161.398C156.08,169.129,159.473,176.259,161.17,179.823L162.866,183.388" id="L_NEO_SRC1_0" class="edge-thickness-normal edge-pattern-solid edge-thickness-normal edge-pattern-solid flowchart-link" style="" marker-end="url(#mermaid-1784880364509_flowchart-v2-pointEnd)"/><path d="M183.145,265L183.145,269.167C183.145,273.333,183.145,281.667,211.04,292.6C238.935,303.534,294.725,317.067,322.62,323.834L350.515,330.601" id="L_SRC1_TX1_0" class="edge-thickness-normal edge-pattern-solid edge-thickness-normal edge-pattern-solid flowchart-link" style="" marker-end="url(#mermaid-1784880364509_flowchart-v2-pointEnd)"/><path d="M403.211,87L403.211,91.167C403.211,95.333,403.211,103.667,403.211,112C403.211,120.333,403.211,128.667,403.211,137C403.211,145.333,403.211,153.667,386.426,162.715C369.641,171.763,336.071,181.526,319.286,186.407L302.501,191.289" id="L_DETAIL_SRC1_0" class="edge-thickness-normal edge-pattern-solid edge-thickness-normal edge-pattern-solid flowchart-link" style="" marker-end="url(#mermaid-1784880364509_flowchart-v2-pointEnd)"/><path d="M631.047,87L631.047,91.167C631.047,95.333,631.047,103.667,631.047,112C631.047,120.333,631.047,128.667,631.047,137C631.047,145.333,631.047,153.667,649.939,163.029C668.832,172.391,706.616,182.782,725.509,187.977L744.401,193.172" id="L_SBDB_SRC2_0" class="edge-thickness-normal edge-pattern-solid edge-thickness-normal edge-pattern-solid flowchart-link" style="" marker-end="url(#mermaid-1784880364509_flowchart-v2-pointEnd)"/><path d="M748.258,248.765L713.385,255.637C678.512,262.51,608.766,276.255,568.447,286.914C528.129,297.572,517.238,305.144,511.793,308.93L506.348,312.717" id="L_SRC2_TX1_0" class="edge-thickness-normal edge-pattern-solid edge-thickness-normal edge-pattern-solid flowchart-link" style="" marker-end="url(#mermaid-1784880364509_flowchart-v2-pointEnd)"/><path d="M446.973,393L446.973,397.167C446.973,401.333,446.973,409.667,446.973,417.333C446.973,425,446.973,432,446.973,435.5L446.973,439" id="L_TX1_DS1_0" class="edge-thickness-normal edge-pattern-solid edge-thickness-normal edge-pattern-solid flowchart-link" style="" marker-end="url(#mermaid-1784880364509_flowchart-v2-pointEnd)"/><path d="M451.32,577.414L451.59,581.582C451.859,585.751,452.398,594.089,452.668,608.924C452.938,623.76,452.938,645.093,452.938,666.426C452.938,687.76,452.938,709.093,452.938,733.092C452.938,757.091,452.938,783.755,452.938,810.42C452.938,837.084,452.938,863.748,452.938,881.247C452.938,898.746,452.938,907.079,452.938,915.413C452.938,923.746,452.938,932.079,452.938,941.746C452.938,951.413,452.938,962.413,452.938,967.913L452.938,973.413" id="L_DS1_OT1_0" class="edge-thickness-normal edge-pattern-solid edge-thickness-normal edge-pattern-solid flowchart-link" style="" marker-end="url(#mermaid-1784880364509_flowchart-v2-pointEnd)"/><path d="M339.473,546.395L311.727,555.734C283.982,565.072,228.491,583.749,200.745,596.588C173,609.426,173,616.426,173,619.926L173,623.426" id="L_DS1_TX2_0" class="edge-thickness-normal edge-pattern-solid edge-thickness-normal edge-pattern-solid flowchart-link" style="" marker-end="url(#mermaid-1784880364509_flowchart-v2-pointEnd)"/><path d="M173,705.426L173,709.593C173,713.76,173,722.093,173,729.76C173,737.426,173,744.426,173,747.926L173,751.426" id="L_TX2_DS2_0" class="edge-thickness-normal edge-pattern-solid edge-thickness-normal edge-pattern-solid flowchart-link" style="" marker-end="url(#mermaid-1784880364509_flowchart-v2-pointEnd)"/><path d="M173,865.413L173,869.579C173,873.746,173,882.079,173,890.413C173,898.746,173,907.079,173,915.413C173,923.746,173,932.079,173,939.746C173,947.413,173,954.413,173,957.913L173,961.413" id="L_DS2_OT2_0" class="edge-thickness-normal edge-pattern-solid edge-thickness-normal edge-pattern-solid flowchart-link" style="" marker-end="url(#mermaid-1784880364509_flowchart-v2-pointEnd)"/><path d="M633.755,265L635.646,269.167C637.537,273.333,641.319,281.667,626.252,291.311C611.184,300.956,577.267,311.912,560.308,317.39L543.349,322.868" id="L_SCHED_TX1_0" class="edge-thickness-normal edge-pattern-solid edge-thickness-normal edge-pattern-solid flowchart-link" style="" marker-end="url(#mermaid-1784880364509_flowchart-v2-pointEnd)"/><path d="M452.938,1031.413L452.938,1037.579C452.938,1043.746,452.938,1056.079,452.938,1066.413C452.938,1076.746,452.938,1085.079,452.938,1093.413C452.938,1101.746,452.938,1110.079,452.938,1122.913C452.938,1135.746,452.938,1153.079,452.938,1170.413C452.938,1187.746,452.938,1205.079,452.938,1217.913C452.938,1230.746,452.938,1239.079,452.938,1253.913C452.938,1268.746,452.938,1290.079,452.938,1311.413C452.938,1332.746,452.938,1354.079,452.938,1368.913C452.938,1383.746,452.938,1392.079,452.938,1400.413C452.938,1408.746,452.938,1417.079,576.992,1430.753C701.047,1444.427,949.156,1463.441,1073.211,1472.948L1197.266,1482.455" id="L_OT1_APP_0" class="edge-thickness-normal edge-pattern-solid edge-thickness-normal edge-pattern-solid flowchart-link" style="" marker-end="url(#mermaid-1784880364509_flowchart-v2-pointEnd)"/><path d="M173,1043.413L173,1047.579C173,1051.746,173,1060.079,173,1068.413C173,1076.746,173,1085.079,173,1093.413C173,1101.746,173,1110.079,173,1117.746C173,1125.413,173,1132.413,173,1135.913L173,1139.413" id="L_OT2_AUTO_0" class="edge-thickness-normal edge-pattern-solid edge-thickness-normal edge-pattern-solid flowchart-link" style="" marker-end="url(#mermaid-1784880364509_flowchart-v2-pointEnd)"/><path d="M173,1197.413L173,1201.579C173,1205.746,173,1214.079,173,1222.413C173,1230.746,173,1239.079,228.163,1251.02C283.326,1262.96,393.651,1278.507,448.814,1286.281L503.977,1294.055" id="L_AUTO_F4_0" class="edge-thickness-normal edge-pattern-solid edge-thickness-normal edge-pattern-solid flowchart-link" style="" marker-end="url(#mermaid-1784880364509_flowchart-v2-pointEnd)"/><path d="M627.148,1350.413L627.148,1354.579C627.148,1358.746,627.148,1367.079,551.457,1375.413C475.766,1383.746,324.383,1392.079,248.691,1400.413C173,1408.746,173,1417.079,173,1426.746C173,1436.413,173,1447.413,173,1452.913L173,1458.413" id="L_F4_EMAIL_0" class="edge-thickness-normal edge-pattern-solid edge-thickness-normal edge-pattern-solid flowchart-link" style="" marker-end="url(#mermaid-1784880364509_flowchart-v2-pointEnd)"/><path d="M863.773,87L863.773,91.167C863.773,95.333,863.773,103.667,863.773,112C863.773,120.333,863.773,128.667,863.773,137C863.773,145.333,863.773,153.667,863.773,161.333C863.773,169,863.773,176,863.773,179.5L863.773,183" id="L_CAD_SRC2_0" class="edge-thickness-normal edge-pattern-solid edge-thickness-normal edge-pattern-solid flowchart-link" style="" marker-end="url(#mermaid-1784880364509_flowchart-v2-pointEnd)"/><path d="M859.843,265L859.424,269.167C859.004,273.333,858.164,281.667,857.744,296.5C857.324,311.333,857.324,332.667,857.324,354C857.324,375.333,857.324,396.667,857.324,422.702C857.324,448.738,857.324,479.475,857.324,510.213C857.324,540.951,857.324,571.689,857.324,597.724C857.324,623.76,857.324,645.093,857.324,666.426C857.324,687.76,857.324,709.093,857.324,733.092C857.324,757.091,857.324,783.755,857.324,810.42C857.324,837.084,857.324,863.748,857.324,881.247C857.324,898.746,857.324,907.079,857.324,915.413C857.324,923.746,857.324,932.079,857.324,946.913C857.324,961.746,857.324,983.079,857.324,1004.413C857.324,1025.746,857.324,1047.079,857.324,1061.913C857.324,1076.746,857.324,1085.079,857.324,1093.413C857.324,1101.746,857.324,1110.079,857.324,1122.913C857.324,1135.746,857.324,1153.079,857.324,1170.413C857.324,1187.746,857.324,1205.079,857.324,1217.913C857.324,1230.746,857.324,1239.079,859.312,1246.83C861.299,1254.58,865.275,1261.747,867.262,1265.331L869.25,1268.915" id="L_SRC2_F1_0" class="edge-thickness-normal edge-pattern-solid edge-thickness-normal edge-pattern-solid flowchart-link" style="" marker-end="url(#mermaid-1784880364509_flowchart-v2-pointEnd)"/><path d="M1066.625,87L1066.625,91.167C1066.625,95.333,1066.625,103.667,1066.625,112C1066.625,120.333,1066.625,128.667,1066.625,137C1066.625,145.333,1066.625,153.667,1052.705,162.225C1038.785,170.784,1010.944,179.567,997.024,183.959L983.104,188.351" id="L_SENTRY_SRC2_0" class="edge-thickness-normal edge-pattern-solid edge-thickness-normal edge-pattern-solid flowchart-link" style="" marker-end="url(#mermaid-1784880364509_flowchart-v2-pointEnd)"/><path d="M979.289,258.228L998.27,263.523C1017.25,268.819,1055.211,279.409,1074.191,295.371C1093.172,311.333,1093.172,332.667,1093.172,354C1093.172,375.333,1093.172,396.667,1093.172,422.702C1093.172,448.738,1093.172,479.475,1093.172,510.213C1093.172,540.951,1093.172,571.689,1093.172,597.724C1093.172,623.76,1093.172,645.093,1093.172,666.426C1093.172,687.76,1093.172,709.093,1093.172,733.092C1093.172,757.091,1093.172,783.755,1093.172,810.42C1093.172,837.084,1093.172,863.748,1093.172,881.247C1093.172,898.746,1093.172,907.079,1093.172,915.413C1093.172,923.746,1093.172,932.079,1093.172,946.913C1093.172,961.746,1093.172,983.079,1093.172,1004.413C1093.172,1025.746,1093.172,1047.079,1093.172,1061.913C1093.172,1076.746,1093.172,1085.079,1093.172,1093.413C1093.172,1101.746,1093.172,1110.079,1093.172,1122.913C1093.172,1135.746,1093.172,1153.079,1093.172,1170.413C1093.172,1187.746,1093.172,1205.079,1093.172,1217.913C1093.172,1230.746,1093.172,1239.079,1076.492,1248.574C1059.812,1258.069,1026.452,1268.726,1009.772,1274.054L993.092,1279.382" id="L_SRC2_F1_2" class="edge-thickness-normal edge-pattern-solid edge-thickness-normal edge-pattern-solid flowchart-link" style="" marker-end="url(#mermaid-1784880364509_flowchart-v2-pointEnd)"/><path d="M892.82,1350.413L892.82,1354.579C892.82,1358.746,892.82,1367.079,892.82,1375.413C892.82,1383.746,892.82,1392.079,892.82,1400.413C892.82,1408.746,892.82,1417.079,943.568,1429.464C994.315,1441.848,1095.81,1458.283,1146.558,1466.501L1197.305,1474.718" id="L_F1_APP_0" class="edge-thickness-normal edge-pattern-solid edge-thickness-normal edge-pattern-solid flowchart-link" style="" marker-end="url(#mermaid-1784880364509_flowchart-v2-pointEnd)"/><path d="M1154.148,1350.413L1154.148,1354.579C1154.148,1358.746,1154.148,1367.079,1154.148,1375.413C1154.148,1383.746,1154.148,1392.079,1154.148,1400.413C1154.148,1408.746,1154.148,1417.079,1162.265,1425.125C1170.381,1433.171,1186.613,1440.929,1194.729,1444.809L1202.845,1448.688" id="L_F2_APP_0" class="edge-thickness-normal edge-pattern-solid edge-thickness-normal edge-pattern-solid flowchart-link" style="" marker-end="url(#mermaid-1784880364509_flowchart-v2-pointEnd)"/><path d="M1433.883,1350.413L1433.883,1354.579C1433.883,1358.746,1433.883,1367.079,1433.883,1375.413C1433.883,1383.746,1433.883,1392.079,1433.883,1400.413C1433.883,1408.746,1433.883,1417.079,1424.654,1425.296C1415.425,1433.513,1396.968,1441.613,1387.739,1445.663L1378.51,1449.713" id="L_F3_APP_0" class="edge-thickness-normal edge-pattern-solid edge-thickness-normal edge-pattern-solid flowchart-link" style="" marker-end="url(#mermaid-1784880364509_flowchart-v2-pointEnd)"/></g><g class="edgeLabels"><g class="edgeLabel"><g class="label" transform="translate(0, 0)"><foreignObject width="0" height="0"><div xmlns="http://www.w3.org/1999/xhtml" class="labelBkg" style="display: table-cell; white-space: nowrap; line-height: 1.5; max-width: 200px; text-align: center;"><span class="edgeLabel"></span></div></foreignObject></g></g><g class="edgeLabel"><g class="label" transform="translate(0, 0)"><foreignObject width="0" height="0"><div xmlns="http://www.w3.org/1999/xhtml" class="labelBkg" style="display: table-cell; white-space: nowrap; line-height: 1.5; max-width: 200px; text-align: center;"><span class="edgeLabel"></span></div></foreignObject></g></g><g class="edgeLabel"><g class="label" transform="translate(0, 0)"><foreignObject width="0" height="0"><div xmlns="http://www.w3.org/1999/xhtml" class="labelBkg" style="display: table-cell; white-space: nowrap; line-height: 1.5; max-width: 200px; text-align: center;"><span class="edgeLabel"></span></div></foreignObject></g></g><g class="edgeLabel"><g class="label" transform="translate(0, 0)"><foreignObject width="0" height="0"><div xmlns="http://www.w3.org/1999/xhtml" class="labelBkg" style="display: table-cell; white-space: nowrap; line-height: 1.5; max-width: 200px; text-align: center;"><span class="edgeLabel"></span></div></foreignObject></g></g><g class="edgeLabel"><g class="label" transform="translate(0, 0)"><foreignObject width="0" height="0"><div xmlns="http://www.w3.org/1999/xhtml" class="labelBkg" style="display: table-cell; white-space: nowrap; line-height: 1.5; max-width: 200px; text-align: center;"><span class="edgeLabel"></span></div></foreignObject></g></g><g class="edgeLabel"><g class="label" transform="translate(0, 0)"><foreignObject width="0" height="0"><div xmlns="http://www.w3.org/1999/xhtml" class="labelBkg" style="display: table-cell; white-space: nowrap; line-height: 1.5; max-width: 200px; text-align: center;"><span class="edgeLabel"></span></div></foreignObject></g></g><g class="edgeLabel"><g class="label" transform="translate(0, 0)"><foreignObject width="0" height="0"><div xmlns="http://www.w3.org/1999/xhtml" class="labelBkg" style="display: table-cell; white-space: nowrap; line-height: 1.5; max-width: 200px; text-align: center;"><span class="edgeLabel"></span></div></foreignObject></g></g><g class="edgeLabel"><g class="label" transform="translate(0, 0)"><foreignObject width="0" height="0"><div xmlns="http://www.w3.org/1999/xhtml" class="labelBkg" style="display: table-cell; white-space: nowrap; line-height: 1.5; max-width: 200px; text-align: center;"><span class="edgeLabel"></span></div></foreignObject></g></g><g class="edgeLabel"><g class="label" transform="translate(0, 0)"><foreignObject width="0" height="0"><div xmlns="http://www.w3.org/1999/xhtml" class="labelBkg" style="display: table-cell; white-space: nowrap; line-height: 1.5; max-width: 200px; text-align: center;"><span class="edgeLabel"></span></div></foreignObject></g></g><g class="edgeLabel"><g class="label" transform="translate(0, 0)"><foreignObject width="0" height="0"><div xmlns="http://www.w3.org/1999/xhtml" class="labelBkg" style="display: table-cell; white-space: nowrap; line-height: 1.5; max-width: 200px; text-align: center;"><span class="edgeLabel"></span></div></foreignObject></g></g><g class="edgeLabel"><g class="label" transform="translate(0, 0)"><foreignObject width="0" height="0"><div xmlns="http://www.w3.org/1999/xhtml" class="labelBkg" style="display: table-cell; white-space: nowrap; line-height: 1.5; max-width: 200px; text-align: center;"><span class="edgeLabel"></span></div></foreignObject></g></g><g class="edgeLabel"><g class="label" transform="translate(0, 0)"><foreignObject width="0" height="0"><div xmlns="http://www.w3.org/1999/xhtml" class="labelBkg" style="display: table-cell; white-space: nowrap; line-height: 1.5; max-width: 200px; text-align: center;"><span class="edgeLabel"></span></div></foreignObject></g></g><g class="edgeLabel"><g class="label" transform="translate(0, 0)"><foreignObject width="0" height="0"><div xmlns="http://www.w3.org/1999/xhtml" class="labelBkg" style="display: table-cell; white-space: nowrap; line-height: 1.5; max-width: 200px; text-align: center;"><span class="edgeLabel"></span></div></foreignObject></g></g><g class="edgeLabel"><g class="label" transform="translate(0, 0)"><foreignObject width="0" height="0"><div xmlns="http://www.w3.org/1999/xhtml" class="labelBkg" style="display: table-cell; white-space: nowrap; line-height: 1.5; max-width: 200px; text-align: center;"><span class="edgeLabel"></span></div></foreignObject></g></g><g class="edgeLabel"><g class="label" transform="translate(0, 0)"><foreignObject width="0" height="0"><div xmlns="http://www.w3.org/1999/xhtml" class="labelBkg" style="display: table-cell; white-space: nowrap; line-height: 1.5; max-width: 200px; text-align: center;"><span class="edgeLabel"></span></div></foreignObject></g></g><g class="edgeLabel"><g class="label" transform="translate(0, 0)"><foreignObject width="0" height="0"><div xmlns="http://www.w3.org/1999/xhtml" class="labelBkg" style="display: table-cell; white-space: nowrap; line-height: 1.5; max-width: 200px; text-align: center;"><span class="edgeLabel"></span></div></foreignObject></g></g><g class="edgeLabel"><g class="label" transform="translate(0, 0)"><foreignObject width="0" height="0"><div xmlns="http://www.w3.org/1999/xhtml" class="labelBkg" style="display: table-cell; white-space: nowrap; line-height: 1.5; max-width: 200px; text-align: center;"><span class="edgeLabel"></span></div></foreignObject></g></g><g class="edgeLabel"><g class="label" transform="translate(0, 0)"><foreignObject width="0" height="0"><div xmlns="http://www.w3.org/1999/xhtml" class="labelBkg" style="display: table-cell; white-space: nowrap; line-height: 1.5; max-width: 200px; text-align: center;"><span class="edgeLabel"></span></div></foreignObject></g></g><g class="edgeLabel"><g class="label" transform="translate(0, 0)"><foreignObject width="0" height="0"><div xmlns="http://www.w3.org/1999/xhtml" class="labelBkg" style="display: table-cell; white-space: nowrap; line-height: 1.5; max-width: 200px; text-align: center;"><span class="edgeLabel"></span></div></foreignObject></g></g><g class="edgeLabel"><g class="label" transform="translate(0, 0)"><foreignObject width="0" height="0"><div xmlns="http://www.w3.org/1999/xhtml" class="labelBkg" style="display: table-cell; white-space: nowrap; line-height: 1.5; max-width: 200px; text-align: center;"><span class="edgeLabel"></span></div></foreignObject></g></g><g class="edgeLabel"><g class="label" transform="translate(0, 0)"><foreignObject width="0" height="0"><div xmlns="http://www.w3.org/1999/xhtml" class="labelBkg" style="display: table-cell; white-space: nowrap; line-height: 1.5; max-width: 200px; text-align: center;"><span class="edgeLabel"></span></div></foreignObject></g></g><g class="edgeLabel"><g class="label" transform="translate(0, 0)"><foreignObject width="0" height="0"><div xmlns="http://www.w3.org/1999/xhtml" class="labelBkg" style="display: table-cell; white-space: nowrap; line-height: 1.5; max-width: 200px; text-align: center;"><span class="edgeLabel"></span></div></foreignObject></g></g></g><g class="nodes"><g class="node default" id="flowchart-NEO-0" transform="translate(152.6875, 60)"><rect class="basic label-container" style="" x="-98.3125" y="-27" width="196.625" height="54"/><g class="label" style="" transform="translate(-68.3125, -12)"><rect/><foreignObject width="136.625" height="24"><div xmlns="http://www.w3.org/1999/xhtml" style="display: table-cell; white-space: nowrap; line-height: 1.5; max-width: 200px; text-align: center;"><span class="nodeLabel"><p>NASA NEO Feed API</p></span></div></foreignObject></g></g><g class="node default" id="flowchart-DETAIL-1" transform="translate(403.2109375, 60)"><rect class="basic label-container" style="" x="-102.2109375" y="-27" width="204.421875" height="54"/><g class="label" style="" transform="translate(-72.2109375, -12)"><rect/><foreignObject width="144.421875" height="24"><div xmlns="http://www.w3.org/1999/xhtml" style="display: table-cell; white-space: nowrap; line-height: 1.5; max-width: 200px; text-align: center;"><span class="nodeLabel"><p>NASA NEO Detail API</p></span></div></foreignObject></g></g><g class="node default" id="flowchart-SBDB-2" transform="translate(631.046875, 60)"><rect class="basic label-container" style="" x="-75.625" y="-27" width="151.25" height="54"/><g class="label" style="" transform="translate(-45.625, -12)"><rect/><foreignObject width="91.25" height="24"><div xmlns="http://www.w3.org/1999/xhtml" style="display: table-cell; white-space: nowrap; line-height: 1.5; max-width: 200px; text-align: center;"><span class="nodeLabel"><p>JPL SBDB API</p></span></div></foreignObject></g></g><g class="node default" id="flowchart-CAD-3" transform="translate(863.7734375, 60)"><rect class="basic label-container" style="" x="-72.2265625" y="-27" width="144.453125" height="54"/><g class="label" style="" transform="translate(-42.2265625, -12)"><rect/><foreignObject width="84.453125" height="24"><div xmlns="http://www.w3.org/1999/xhtml" style="display: table-cell; white-space: nowrap; line-height: 1.5; max-width: 200px; text-align: center;"><span class="nodeLabel"><p>JPL CAD API</p></span></div></foreignObject></g></g><g class="node default" id="flowchart-SENTRY-4" transform="translate(1066.625, 60)"><rect class="basic label-container" style="" x="-80.625" y="-27" width="161.25" height="54"/><g class="label" style="" transform="translate(-50.625, -12)"><rect/><foreignObject width="101.25" height="24"><div xmlns="http://www.w3.org/1999/xhtml" style="display: table-cell; white-space: nowrap; line-height: 1.5; max-width: 200px; text-align: center;"><span class="nodeLabel"><p>JPL Sentry API</p></span></div></foreignObject></g></g><g class="node default" id="flowchart-SRC1-5" transform="translate(183.14453125, 226)"><rect class="basic label-container" style="" x="-115.515625" y="-39" width="231.03125" height="78"/><g class="label" style="" transform="translate(-85.515625, -24)"><rect/><foreignObject width="171.03125" height="48"><div xmlns="http://www.w3.org/1999/xhtml" style="display: table-cell; white-space: nowrap; line-height: 1.5; max-width: 200px; text-align: center;"><span class="nodeLabel"><p>Data Connection Source<br />api.nasa.gov</p></span></div></foreignObject></g></g><g class="node default" id="flowchart-SRC2-6" transform="translate(863.7734375, 226)"><rect class="basic label-container" style="" x="-115.515625" y="-39" width="231.03125" height="78"/><g class="label" style="" transform="translate(-85.515625, -24)"><rect/><foreignObject width="171.03125" height="48"><div xmlns="http://www.w3.org/1999/xhtml" style="display: table-cell; white-space: nowrap; line-height: 1.5; max-width: 200px; text-align: center;"><span class="nodeLabel"><p>Data Connection Source<br />ssd-api.jpl.nasa.gov</p></span></div></foreignObject></g></g><g class="node default" id="flowchart-TX1-7" transform="translate(446.97265625, 354)"><rect class="basic label-container" style="" x="-92.5703125" y="-39" width="185.140625" height="78"/><g class="label" style="" transform="translate(-62.5703125, -24)"><rect/><foreignObject width="125.140625" height="48"><div xmlns="http://www.w3.org/1999/xhtml" style="display: table-cell; white-space: nowrap; line-height: 1.5; max-width: 200px; text-align: center;"><span class="nodeLabel"><p>Python Transform<br />neo_feed.py</p></span></div></foreignObject></g></g><g class="node default" id="flowchart-TX2-8" transform="translate(173, 666.4264678955078)"><rect class="basic label-container" style="" x="-92.5703125" y="-39" width="185.140625" height="78"/><g class="label" style="" transform="translate(-62.5703125, -24)"><rect/><foreignObject width="125.140625" height="48"><div xmlns="http://www.w3.org/1999/xhtml" style="display: table-cell; white-space: nowrap; line-height: 1.5; max-width: 200px; text-align: center;"><span class="nodeLabel"><p>Python Transform<br />neo_alerts.py</p></span></div></foreignObject></g></g><g class="node default" id="flowchart-DS1-9" transform="translate(446.97265625, 510.2132339477539)"><path d="M0,15.808823529411764 a107.5,15.808823529411764 0,0,0 215,0 a107.5,15.808823529411764 0,0,0 -215,0 l0,102.80882352941177 a107.5,15.808823529411764 0,0,0 215,0 l0,-102.80882352941177" class="basic label-container" style="" transform="translate(-107.5, -67.21323529411765)"/><g class="label" style="" transform="translate(-100, -26)"><rect/><foreignObject width="200" height="72"><div xmlns="http://www.w3.org/1999/xhtml" style="display: table; white-space: break-spaces; line-height: 1.5; max-width: 200px; text-align: center; width: 200px;"><span class="nodeLabel"><p>Dataset<br />neo_recent_close_approaches</p></span></div></foreignObject></g></g><g class="node default" id="flowchart-DS2-10" transform="translate(173, 810.419563293457)"><path d="M0,15.662059949575124 a104.828125,15.662059949575124 0,0,0 209.65625,0 a104.828125,15.662059949575124 0,0,0 -209.65625,0 l0,78.66205994957512 a104.828125,15.662059949575124 0,0,0 209.65625,0 l0,-78.66205994957512" class="basic label-container" style="" transform="translate(-104.828125, -54.993089924362685)"/><g class="label" style="" transform="translate(-97.328125, -14)"><rect/><foreignObject width="194.65625" height="48"><div xmlns="http://www.w3.org/1999/xhtml" style="display: table-cell; white-space: nowrap; line-height: 1.5; max-width: 200px; text-align: center;"><span class="nodeLabel"><p>Dataset<br />neo_close_approach_alerts</p></span></div></foreignObject></g></g><g class="node default" id="flowchart-SCHED-11" transform="translate(616.0546875, 226)"><rect class="basic label-container" style="" x="-82.203125" y="-39" width="164.40625" height="78"/><g class="label" style="" transform="translate(-52.203125, -24)"><rect/><foreignObject width="104.40625" height="48"><div xmlns="http://www.w3.org/1999/xhtml" style="display: table-cell; white-space: nowrap; line-height: 1.5; max-width: 200px; text-align: center;"><span class="nodeLabel"><p>Daily Schedule<br />7:00 AM UTC</p></span></div></foreignObject></g></g><g class="node default" id="flowchart-OT1-12" transform="translate(452.9375, 1004.4126586914062)"><rect class="basic label-container" style="" x="-99.9375" y="-27" width="199.875" height="54"/><g class="label" style="" transform="translate(-69.9375, -12)"><rect/><foreignObject width="139.875" height="24"><div xmlns="http://www.w3.org/1999/xhtml" style="display: table-cell; white-space: nowrap; line-height: 1.5; max-width: 200px; text-align: center;"><span class="nodeLabel"><p>Near Earth Asteroid</p></span></div></foreignObject></g></g><g class="node default" id="flowchart-OT2-13" transform="translate(173, 1004.4126586914062)"><rect class="basic label-container" style="" x="-130" y="-39" width="260" height="78"/><g class="label" style="" transform="translate(-100, -24)"><rect/><foreignObject width="200" height="48"><div xmlns="http://www.w3.org/1999/xhtml" style="display: table; white-space: break-spaces; line-height: 1.5; max-width: 200px; text-align: center; width: 200px;"><span class="nodeLabel"><p>Asteroid Close Approach Alert</p></span></div></foreignObject></g></g><g class="node default" id="flowchart-F1-14" transform="translate(892.8203125, 1311.4126586914062)"><rect class="basic label-container" style="" x="-96.4609375" y="-39" width="192.921875" height="78"/><g class="label" style="" transform="translate(-66.4609375, -24)"><rect/><foreignObject width="132.921875" height="48"><div xmlns="http://www.w3.org/1999/xhtml" style="display: table-cell; white-space: nowrap; line-height: 1.5; max-width: 200px; text-align: center;"><span class="nodeLabel"><p>getAsteroidHistory<br />TypeScript v2</p></span></div></foreignObject></g></g><g class="node default" id="flowchart-F2-15" transform="translate(1154.1484375, 1311.4126586914062)"><rect class="basic label-container" style="" x="-114.8671875" y="-39" width="229.734375" height="78"/><g class="label" style="" transform="translate(-84.8671875, -24)"><rect/><foreignObject width="169.734375" height="48"><div xmlns="http://www.w3.org/1999/xhtml" style="display: table-cell; white-space: nowrap; line-height: 1.5; max-width: 200px; text-align: center;"><span class="nodeLabel"><p>getAsteroidSummary<br />TypeScript v2 + GPT-5.5</p></span></div></foreignObject></g></g><g class="node default" id="flowchart-F3-16" transform="translate(1433.8828125, 1311.4126586914062)"><rect class="basic label-container" style="" x="-114.8671875" y="-39" width="229.734375" height="78"/><g class="label" style="" transform="translate(-84.8671875, -24)"><rect/><foreignObject width="169.734375" height="48"><div xmlns="http://www.w3.org/1999/xhtml" style="display: table-cell; white-space: nowrap; line-height: 1.5; max-width: 200px; text-align: center;"><span class="nodeLabel"><p>getWeeklyDigest<br />TypeScript v2 + GPT-5.5</p></span></div></foreignObject></g></g><g class="node default" id="flowchart-F4-17" transform="translate(627.1484375, 1311.4126586914062)"><rect class="basic label-container" style="" x="-119.2109375" y="-39" width="238.421875" height="78"/><g class="label" style="" transform="translate(-89.2109375, -24)"><rect/><foreignObject width="178.421875" height="48"><div xmlns="http://www.w3.org/1999/xhtml" style="display: table-cell; white-space: nowrap; line-height: 1.5; max-width: 200px; text-align: center;"><span class="nodeLabel"><p>asteroidAlertNotification<br />TypeScript v2 + GPT-5.5</p></span></div></foreignObject></g></g><g class="node default" id="flowchart-APP-18" transform="translate(1288.05078125, 1489.4126586914062)"><rect class="basic label-container" style="" x="-86.796875" y="-39" width="173.59375" height="78"/><g class="label" style="" transform="translate(-56.796875, -24)"><rect/><foreignObject width="113.59375" height="48"><div xmlns="http://www.w3.org/1999/xhtml" style="display: table-cell; white-space: nowrap; line-height: 1.5; max-width: 200px; text-align: center;"><span class="nodeLabel"><p>OSDK React App<br />Asteroid Watch</p></span></div></foreignObject></g></g><g class="node default" id="flowchart-AUTO-19" transform="translate(173, 1170.4126586914062)"><rect class="basic label-container" style="" x="-95.6484375" y="-27" width="191.296875" height="54"/><g class="label" style="" transform="translate(-65.6484375, -12)"><rect/><foreignObject width="131.296875" height="24"><div xmlns="http://www.w3.org/1999/xhtml" style="display: table-cell; white-space: nowrap; line-height: 1.5; max-width: 200px; text-align: center;"><span class="nodeLabel"><p>Foundry Automate</p></span></div></foreignObject></g></g><g class="node default" id="flowchart-EMAIL-20" transform="translate(173, 1489.4126586914062)"><rect class="basic label-container" style="" x="-94.5546875" y="-27" width="189.109375" height="54"/><g class="label" style="" transform="translate(-64.5546875, -12)"><rect/><foreignObject width="129.109375" height="24"><div xmlns="http://www.w3.org/1999/xhtml" style="display: table-cell; white-space: nowrap; line-height: 1.5; max-width: 200px; text-align: center;"><span class="nodeLabel"><p>Email Notification</p></span></div></foreignObject></g></g></g></g></g></svg>